<svg width="55" height="3" viewBox="0 0 55 3" fill="black" xmlns="http://www.w3.org/2000/svg">
<path d="M28.3109 0.421743C29.0146 0.448881 29.926 0.549947 30.6229 0.530338C30.8105 0.609664 31.013 0.650124 31.2176 0.649129L31.2412 0.530386L31.426 0.570103C31.502 0.534544 31.284 0.546926 31.4174 0.502426L31.4871 0.577031C31.502 0.534544 31.9633 0.553902 31.6531 0.464458L32.3747 0.473997C32.5342 0.468594 32.4668 0.570832 32.6432 0.547864C32.6791 0.513664 32.5805 0.523001 32.5944 0.480548C33.1232 0.400663 33.2038 0.720787 33.6967 0.674103L33.6549 0.657527C33.7385 0.690678 33.8982 0.689268 33.8999 0.706205C33.8361 0.82531 33.812 0.640214 33.6609 0.708303C33.6727 0.807856 33.8474 0.765955 33.8378 0.842246C33.953 0.807359 34.021 0.866025 34.1212 0.873625C34.2932 0.812826 34.5391 0.859471 34.6683 0.784128C34.7737 0.858757 34.8965 0.907114 35.0257 0.924949C35.1559 0.848572 34.9962 0.848984 35.1724 0.820026L35.2003 0.879054C35.3444 0.874173 35.3221 0.855937 35.317 0.828124C35.4716 0.828884 35.4446 0.91076 35.6382 0.877216L35.533 0.817808C35.6658 0.8373 35.8004 0.842461 35.9344 0.833198C35.9332 0.799255 35.8497 0.800082 35.7913 0.808059C35.9005 0.723394 35.9762 0.849773 36.0346 0.841796C36.018 0.867347 35.8792 0.876046 35.9463 0.934748C36.049 0.92627 36.1554 1.01862 36.2271 0.951222L36.122 0.892812C36.3299 0.942744 36.2278 0.968193 36.4683 0.951051C36.4557 0.946477 36.4614 0.932292 36.4568 0.919453C36.6059 0.997363 36.8025 0.93373 37.0241 0.933223L36.9822 0.916648C37.0716 0.938608 37.1199 0.991947 37.1682 0.988312C37.0416 1.01959 37.0762 1.03741 37.0638 1.0918C37.2314 0.998165 37.3174 1.20916 37.5906 1.15792C37.5894 1.12398 37.522 1.08228 37.4459 1.11584C37.3548 1.01897 37.3434 0.929404 37.1777 0.880039C37.2817 0.905505 37.4018 0.921427 37.3776 0.879266L37.4088 0.972167C37.4718 0.976031 37.521 0.968367 37.5685 0.972754C37.5943 1.03185 37.441 1.06603 37.5857 1.10711C37.7487 1.14057 37.6741 1.01416 37.6993 1.05628C37.9234 1.09767 37.7904 1.15315 38.0111 1.13168C37.9892 1.12343 37.9474 1.10685 37.9291 1.11547C38.0845 1.08122 38.3103 1.14054 38.3579 1.03098C38.3353 1.00575 38.331 0.971914 38.2726 0.979891L38.2732 0.996862C38.1042 0.911628 38.4152 1.02204 38.3632 0.920847C38.3499 0.980271 38.5711 0.972776 38.6677 0.964507L38.6361 1.03155C38.9601 1.24447 38.6209 0.896123 38.9416 0.931239C39.1495 0.982169 38.8639 0.947865 38.9884 0.999623C39.1166 0.964748 39.2505 0.953769 39.3829 0.967268C39.4397 0.941355 39.556 0.90843 39.5666 0.832104C39.6894 0.865926 39.9418 0.807399 40.0116 0.884001C39.7993 0.942167 39.8024 0.798129 39.5543 0.891493L39.622 0.967166C39.7905 0.985076 39.9602 0.991686 40.1297 0.986952C40.1054 1.00077 40.0948 1.02012 40.1098 1.0366C40.2874 1.09209 40.4719 1.12384 40.6583 1.13097C40.6909 1.0639 40.5531 1.07156 40.4498 1.06307C40.6036 1.01288 40.6095 1.06365 40.847 1.04961C40.8603 0.990188 40.6873 1.04903 40.6615 0.989928L40.9231 1.01605C40.9225 1.01208 40.9224 1.00807 40.9227 1.00407C40.9592 1.10279 41.1223 0.997306 41.2824 1.03486C41.662 1.046 41.7174 1.18206 41.9266 1.26893C41.9834 1.24401 42.001 1.21943 41.9774 1.19324C41.8831 1.23442 41.9002 1.19585 41.8685 1.17294C41.9968 1.18758 42.1507 1.08441 42.0802 1.04182C42.2875 1.07678 42.0057 1.09232 42.1296 1.12711L42.409 1.12964C42.3747 1.17978 42.276 1.18712 42.4197 1.22923C42.5324 1.24184 42.6459 1.24568 42.7592 1.24072C42.7366 1.2155 42.8111 1.165 42.6915 1.16405C42.7321 1.15208 42.7749 1.14909 42.8169 1.15527C42.8588 1.16146 42.8988 1.17668 42.9339 1.19982C42.7592 1.24072 43.2182 1.25316 43.0869 1.32758L43.2616 1.28667C43.2215 1.28803 43.2181 1.25216 43.1576 1.26021C43.2085 1.18452 43.2997 1.28638 43.365 1.29617C43.4264 1.28309 43.586 1.28168 43.5994 1.25224C43.6352 1.26369 43.6731 1.26709 43.7104 1.26218C43.7478 1.25728 43.7834 1.24421 43.8148 1.22396C43.8958 1.2422 43.8166 1.27487 43.8433 1.29996L44.1216 1.30252C44.1376 1.26 44.1632 1.14219 44.1224 1.12458C44.227 1.16801 44.1569 1.25235 44.3166 1.25294C44.2269 1.16701 44.5289 1.19577 44.3984 1.09324C44.5588 1.04419 44.7299 1.03839 44.8935 1.07647C44.9804 1.14549 44.738 1.10772 44.7445 1.17547C45.1468 1.21482 45.1649 1.40212 45.4629 1.38103L45.3862 1.39662C45.482 1.40879 45.5738 1.44191 45.6545 1.49349C45.6061 1.40817 45.8693 1.27631 46.1723 1.30603C46.1965 1.34918 46.0008 1.3798 46.0486 1.44815L46.2492 1.46834C46.2645 1.46283 46.2423 1.44759 46.2161 1.43548C46.3957 1.47238 46.5547 1.33905 46.6037 1.43934L46.7901 1.32408L46.7167 1.37354C46.7409 1.4157 46.9425 1.43586 46.9834 1.45347C47.0476 1.47657 47.1161 1.48599 47.1844 1.48109C47.2527 1.47619 47.3191 1.45709 47.3791 1.42507C47.3421 1.45831 47.2499 1.5294 47.4125 1.55288C47.4148 1.41686 47.7543 1.51631 47.7516 1.44144C47.8167 1.44623 47.9349 1.40924 47.94 1.46504L47.9318 1.38036C47.9433 1.49892 48.1825 1.50381 48.3649 1.53261C48.3282 1.37093 48.5656 1.5538 48.6512 1.41197C48.6819 1.52188 48.9747 1.46898 49.0039 1.56295C49.1444 1.57418 49.1335 1.47259 49.1705 1.43936L49.2349 1.48315C49.3974 1.4433 49.5636 1.41926 49.731 1.41137L49.8738 1.51349L49.9301 1.4726C49.9526 1.49782 50.0739 1.5177 49.9967 1.5503L50.076 1.54762C50.0798 1.65244 50.1864 1.58086 50.3428 1.63254C50.3804 1.61727 50.3712 1.59159 50.3408 1.57563C50.4192 1.57797 50.3873 1.52308 50.4315 1.4896C50.3746 1.51451 50.7097 1.69008 50.4946 1.72735C50.4786 1.76987 50.6005 1.80573 50.6803 1.79103L50.7306 1.69936L50.8199 1.80329C50.9411 1.82217 50.9947 1.76538 51.0934 1.75804C50.99 1.74755 50.8804 1.56535 51.1354 1.5807C51.041 1.5612 50.9499 1.5286 50.8651 1.48391C50.9186 1.48209 50.9461 1.47416 50.8632 1.431C51.0644 1.46916 50.9292 1.49173 51.1289 1.51295C51.1207 1.42827 51.1775 1.40336 51.3529 1.38242L51.221 1.43887C51.2266 1.44908 51.2351 1.45748 51.2456 1.46302C51.1953 1.46972 51.1814 1.48319 51.1701 1.51455C51.2093 1.51323 51.3989 1.62875 51.4332 1.57861C51.2315 1.70239 51.7815 1.69376 51.6462 1.7713C51.6687 1.79653 51.8082 1.8068 51.8232 1.76531C51.6579 1.69594 51.9507 1.67303 51.9208 1.61307C51.9825 1.63897 51.7889 1.67151 51.8715 1.7057C51.9527 1.70545 52.0321 1.68227 52.1 1.63899L52.0592 1.62238L52.2125 1.5882C52.2377 1.63032 52.0635 1.65621 52.2045 1.68142C52.242 1.66416 52.383 1.68837 52.3787 1.65453C52.3117 1.59583 52.3615 1.51918 52.2414 1.50326C52.3447 1.51175 52.6543 1.52325 52.5283 1.60149L52.6466 1.59748C52.5727 1.63297 52.3637 1.69502 52.6022 1.70793L52.6016 1.69096L52.7677 1.7543L52.8393 1.7099C52.84 1.73086 52.8644 1.75103 52.9252 1.74897C52.9407 1.72345 52.9991 1.71248 52.9927 1.67871C53.1731 1.6806 53.1447 1.72254 53.1714 1.74663C53.2591 1.75065 53.2862 1.73174 53.2433 1.68322C53.3335 1.67017 53.4903 1.67485 53.5164 1.6C53.644 1.59568 53.5051 1.62837 53.6028 1.65305C53.5994 1.55921 53.6666 1.50695 53.7295 1.42186C53.8017 1.33864 53.8526 1.23997 53.8778 1.13397C54.0205 1.2061 53.8996 1.08125 54.0279 1.03693C54.0082 1.06358 53.9732 1.00679 53.9412 0.976891C53.9092 0.946988 53.8821 0.93891 53.8719 1.02722C53.874 0.990903 53.8727 0.95448 53.868 0.918398C53.8186 0.892084 53.8172 0.938111 53.8072 0.975433C53.7972 1.01275 53.7735 1.04254 53.7144 1.00356C53.7128 0.958639 53.741 0.910707 53.7504 0.857412C53.7606 0.830063 53.7605 0.800076 53.7501 0.77279C53.7397 0.745504 53.7196 0.722689 53.6935 0.708408C53.642 0.796111 53.6502 0.620916 53.5906 0.711894C53.5797 0.752245 53.61 0.763214 53.6223 0.791782L53.5945 0.792724C53.5192 0.733303 53.5227 0.715193 53.5483 0.681342C53.5738 0.647491 53.6212 0.617899 53.5841 0.559185C53.4486 0.488808 53.425 0.576569 53.4005 0.611383C53.3412 0.606384 53.2856 0.581387 53.2434 0.54074C53.3288 0.625804 53.4736 0.553931 53.4475 0.485848C53.318 0.553205 53.1643 0.405481 53.1159 0.348149C53.4349 0.337341 53.3155 0.399358 53.6325 0.387622C53.6466 0.435123 53.5887 0.489058 53.7319 0.54518C53.6886 0.458687 53.777 0.507671 53.8113 0.516504C53.744 0.535777 53.8742 0.603333 53.8772 0.659205C53.9468 0.675837 53.9334 0.501374 54.0579 0.640091L54.0038 0.684901L53.9467 0.72782C53.9927 0.777235 54.0298 0.662032 54.0587 0.804989C54.0913 0.709926 54.187 0.792644 54.1004 0.589674C54.151 0.622287 54.1905 0.668651 54.2141 0.722966C54.2377 0.777281 54.2443 0.837134 54.233 0.895041C54.2053 0.990186 54.1697 1.08299 54.1265 1.17252C54.1362 1.1542 54.1547 1.15358 54.1654 1.13522C54.1348 1.18543 54.1131 1.24021 54.1011 1.29732C54.1059 1.4301 54.1837 1.21456 54.2159 1.25146L54.194 1.35915L54.1575 1.46034C54.1577 1.46633 54.1578 1.46833 54.165 1.46908C54.1265 1.51636 54.0856 1.55273 54.1096 1.5899C54.1688 1.57051 54.2256 1.54479 54.2789 1.5132C54.2225 1.5813 54.155 1.63998 54.0791 1.68689C54.1369 1.69093 54.0122 1.88907 54.1459 1.76759L54.1083 1.81284C54.0835 1.83867 54.0464 1.86692 54.0083 1.89719C53.9589 1.93367 53.9063 1.96589 53.8511 1.99348L53.8716 2.07874C53.7765 2.09896 53.7689 2.08722 53.8619 2.03709C53.7597 2.08021 53.6476 2.09642 53.5369 2.08408C53.4194 2.08307 53.3306 2.07708 53.379 2.1614C53.077 2.10366 52.9966 2.13137 52.6663 2.08559C52.9174 2.16404 52.3792 2.18427 52.6454 2.22124C52.4891 2.25752 52.4569 2.16565 52.3337 2.14983C52.2185 2.18472 52.269 2.26897 52.3938 2.30173L52.247 2.26072L52.2476 2.27769L52.1211 2.227C51.9856 2.26957 52.0912 2.31198 51.9524 2.31968L51.9239 2.24368L51.8285 2.28489C51.8644 2.25169 51.7823 2.23348 51.6821 2.22488L51.6827 2.24185L51.5604 2.223C51.6807 2.2729 51.4486 2.23579 51.5021 2.29095C51.4031 2.29096 51.3043 2.28328 51.2065 2.26798L51.2408 2.21784C50.9957 2.16317 51.2281 2.29423 51.028 2.29002L51.0424 2.23155C50.7519 2.31836 50.5572 2.14804 50.344 2.20824C50.4642 2.22715 50.4316 2.29423 50.4299 2.27729C50.2044 2.26605 49.9809 2.23038 49.7635 2.17092C49.6923 2.2543 49.6745 2.27389 49.4789 2.3085C49.3384 2.29727 49.3174 2.28799 49.2703 2.23661C49.1332 2.26424 48.8785 2.2029 48.8694 2.26518C48.8387 2.21424 48.7459 2.26936 48.6722 2.22488L48.6556 2.24944L48.6699 2.19098C48.4239 2.31326 48.2637 2.09779 48.015 2.20316L48.0569 2.22074L47.9528 2.19328C47.9362 2.21883 47.9771 2.23644 47.9814 2.27027L47.5029 2.26049L47.5983 2.22028C47.4949 2.20979 47.4319 2.14995 47.3156 2.18188C47.5045 2.27543 47.1568 2.17926 47.1242 2.24633L47.2283 2.2738C47.0888 2.26353 47.0888 2.26353 47.1011 2.20414C46.9197 2.1763 46.9729 2.30843 46.8077 2.24206L46.9273 2.24401C46.9632 2.21081 46.8789 2.15869 46.7995 2.15738C46.7803 2.16603 46.7234 2.18994 46.7835 2.1999C46.6414 2.17173 46.4247 2.19406 46.363 2.16817C46.2853 2.18379 46.3095 2.22695 46.3503 2.24456C46.0461 2.1809 46.2114 2.24927 45.9062 2.18764L45.9074 2.22158L45.8028 2.17715L45.6506 2.24328L45.7058 2.20142C45.6136 2.18121 45.519 2.17398 45.4247 2.17996L45.4709 2.23137C45.1882 2.19297 45.1406 2.30253 44.8729 2.22264C44.8547 2.23125 44.8955 2.24886 44.9174 2.25712C44.6689 2.16558 44.7266 2.33854 44.4776 2.23403C44.4927 2.25151 44.4646 2.27146 44.4743 2.28612L44.3607 2.24899L44.3631 2.31687L44.2719 2.21401L44.2001 2.28141L44.1566 2.2479C44.0313 2.37309 43.8607 2.27092 43.692 2.3636L43.7229 2.27959C43.3041 2.09387 42.7568 2.3473 42.2494 2.24954L42.257 2.31725L42.0478 2.23138C41.9342 2.28121 42.1138 2.29111 42.0779 2.32431C41.8537 2.27993 41.9866 2.22146 41.7249 2.19434C41.5904 2.23588 41.7701 2.24578 41.8308 2.27171C41.5747 2.21828 41.3122 2.19925 41.0508 2.21517C41.0504 2.20619 41.0366 2.19366 41.0499 2.19022C40.8642 2.17091 40.6773 2.16455 40.4907 2.17117C40.4918 2.20212 40.5394 2.20851 40.584 2.21599C40.5153 2.2296 40.4441 2.22547 40.3775 2.204L40.4446 2.2637C40.3056 2.2684 40.0408 2.2114 40.0092 2.27844C40.0258 2.25289 40.0199 2.20212 39.9034 2.20206C39.836 2.3043 39.579 2.15008 39.3881 2.20053C39.4107 2.22575 39.5512 2.23499 39.511 2.23535C39.4179 2.24527 39.3241 2.22412 39.245 2.17539L39.2703 2.21751L38.8247 2.14864C38.7573 2.25088 38.4033 2.12194 38.4328 2.1979C38.2731 2.19732 38.5674 2.15636 38.3658 2.1392C38.3117 2.18102 38.1835 2.11339 38.1911 2.1811L38.212 2.18939L38.0716 2.18115L38.1596 2.24914C38.0384 2.23225 37.9504 2.16427 37.9486 2.11435C37.8334 2.14924 37.6704 2.11478 37.6169 2.17456L37.6598 2.1911C37.3371 2.15805 37.1229 2.36222 36.8703 2.24383C36.851 2.25248 36.8537 2.26938 36.8928 2.26906L36.6929 2.26883L36.7401 2.31921L36.4115 2.23539L36.4127 2.26933C36.1945 2.27672 35.8536 2.25428 35.5738 2.23777L35.6156 2.25435C35.3106 2.19572 35.3198 2.28036 35.0998 2.23884C35.1056 2.24626 35.1138 2.25161 35.1231 2.25404L34.9168 2.24904L34.9613 2.28251C34.8133 2.20756 34.5337 2.37096 34.6264 2.31085C34.5417 2.27773 34.397 2.23666 34.3728 2.1945C34.1531 2.18695 34.3187 2.23731 34.1826 2.26391C34.0241 2.26928 33.9961 2.20626 33.7807 2.23354L33.7819 2.26749C33.6786 2.25999 33.619 2.23502 33.4786 2.22779L33.5204 2.24436C33.292 2.17013 33.2342 2.33901 33.0557 2.18913C32.9598 2.21537 32.7776 2.19056 32.7862 2.25923C32.5011 2.21092 32.2798 2.18743 31.9963 2.15605C31.9508 2.26654 31.9352 2.14813 31.7633 2.20992L31.7766 2.1505C31.3764 2.13807 30.9157 2.27962 30.4747 2.25257L30.4624 2.31196L30.3745 2.24597C29.8993 2.27006 29.2846 2.28289 28.9055 2.28374C28.7426 2.22442 28.5694 2.19634 28.3955 2.20106L28.4164 2.20935C28.058 2.16495 27.6959 2.15512 27.3355 2.17999C27.3591 2.20518 27.3215 2.22245 27.3634 2.23902C27.2744 2.17307 27.1437 2.23447 27.0634 2.23619L27.1576 2.19201C27.1063 2.1722 27.0505 2.16552 26.9958 2.17263C26.941 2.17973 26.889 2.20038 26.8448 2.2326L26.6756 2.16836C26.6645 2.17474 26.6473 2.18332 26.6456 2.19337L26.63 2.16291L26.5411 2.24089C26.4993 2.22431 26.276 2.20389 26.2063 2.12828C26.1897 2.15383 26.0328 2.17414 26.1549 2.189L25.5374 2.20991L25.6333 2.18168C25.6445 2.12233 25.4599 2.0876 25.3649 2.1128C25.4903 2.16053 25.3762 2.19738 25.3222 2.2412C25.2386 2.20904 25.3945 2.18877 25.35 2.15629C25.2271 2.1142 25.0952 2.10285 24.9665 2.1233L25.0292 2.14717C24.8862 2.12502 24.8261 2.22901 24.6806 2.22395C24.5542 2.17625 24.461 2.22139 24.4862 2.11858C24.303 2.0978 24.4165 2.18791 24.3571 2.19792C24.2959 2.17733 24.2307 2.16985 24.1662 2.17601C24.1017 2.18216 24.0393 2.2018 23.9833 2.23357C23.8821 2.08407 23.4917 2.28821 23.4542 2.16253L23.3053 2.23355C23.2981 2.19845 23.2784 2.1669 23.2498 2.14433C23.2211 2.12176 23.1853 2.1096 23.1484 2.10992C23.0343 2.14677 23.0622 2.2058 23.0273 2.23997L22.9486 2.11469C22.2899 2.24895 21.4182 2.16653 20.6971 2.28492C20.3299 2.24055 19.9602 2.21969 19.5902 2.22246L19.632 2.23803L19.2583 2.27668L19.5292 2.21553C19.4558 2.19605 19.3804 2.18452 19.3043 2.18116C18.8211 2.26472 18.329 2.28878 17.8396 2.25277C17.5089 2.11304 17.6238 2.38402 17.3089 2.28274C17.3362 2.29581 17.3462 2.31646 17.3704 2.32964C17.0796 2.2989 16.7912 2.25025 16.5068 2.18397C16.549 2.32647 16.2863 2.18344 16.3189 2.2583L16.2889 2.20034C16.214 2.23687 16.0373 2.25285 16.0636 2.29394L15.9127 2.22409L15.9014 2.28444C15.7038 2.29113 15.282 2.25145 15.1762 2.37498C14.5508 2.31559 13.9211 2.31416 13.2955 2.37071C13.1641 2.32912 13.0256 2.31276 12.8878 2.32255L12.74 2.39753C12.5972 2.37937 12.4426 2.29365 12.3114 2.34208C12.3121 2.34616 12.314 2.34996 12.3169 2.35305C12.3197 2.35614 12.3234 2.35838 12.3275 2.35952C12.1869 2.37478 12.0445 2.36399 11.908 2.32775C11.7495 2.33312 11.6007 2.37715 11.6463 2.44157C11.6276 2.32426 11.3102 2.46695 11.3102 2.46695L10.005 2.53415C9.20997 2.57508 8.12774 2.62473 6.984 2.65448C5.03649 2.7896 3.07974 2.7259 1.14595 2.46441C1.07597 2.40981 0.889392 2.37915 0.95686 2.30689C0.81305 2.29077 0.754008 2.39673 0.722077 2.33983C0.915118 2.29231 0.6549 2.19118 0.841609 2.11089L0.718669 2.10206C0.691466 2.062 0.887049 2.14233 0.853479 2.0685L0.892352 2.17514C0.961907 2.16813 1.02695 2.13844 1.07686 2.09092C1.17202 2.12968 1.237 2.27441 1.4559 2.20103L1.39496 2.1971C1.5761 2.19096 1.50253 2.12248 1.53894 2.10326L1.4988 2.10462L1.6491 2.04355C1.5352 2.08539 1.33859 2.00509 1.44169 2.0066C1.65564 1.96737 1.38708 2.03544 1.54601 2.04205C1.64892 2.03856 1.61614 1.9867 1.60978 1.95293L1.78988 1.94683C1.78187 1.89612 1.6705 1.95087 1.74181 1.89948L1.97113 1.94369C2.00766 1.81351 2.22028 1.99522 2.31882 1.86994C2.15414 1.84653 2.33168 1.82652 2.30345 1.78649L2.7038 1.77293C2.74123 1.75367 2.59948 1.73748 2.65836 1.74149C2.73219 1.703 2.78397 1.76722 2.82407 1.76486C2.85677 1.72877 3.12253 1.75475 3.10812 1.66928C3.3777 1.60117 3.22723 1.7722 3.47755 1.71274C3.50861 1.65971 3.27132 1.70873 3.3867 1.65085L3.64975 1.65893C3.63427 1.63413 3.61132 1.61452 3.584 1.60276C3.55667 1.591 3.52629 1.58764 3.49694 1.59314C4.05891 1.41873 4.6394 1.30652 5.22736 1.25865C5.31673 1.19365 5.16002 1.21995 5.09374 1.18221C5.56695 1.24614 5.74959 1.02406 6.15015 1.01648L6.15919 1.06716C6.77129 0.953187 7.39223 0.889687 8.01538 0.877337L7.94151 0.914823C8.04906 0.951158 8.16108 0.973578 8.27467 0.981502C8.28918 0.955022 8.19566 0.876227 8.37961 0.890987C8.34218 0.910247 8.26567 0.931829 8.28918 0.955022C9.1396 0.828046 9.99688 0.748945 10.8567 0.718118C12.0627 0.727245 13.3665 0.594119 14.5509 0.605975C14.3706 0.605088 14.4523 0.72926 14.5851 0.697774C14.9523 0.479429 15.231 0.720874 15.6109 0.569069C16.2594 0.524368 16.9105 0.530055 17.558 0.586075L17.5693 0.525722C17.6641 0.497522 17.6913 0.53858 17.7914 0.543185L17.7908 0.526213C18.0279 0.50019 18.3164 0.557386 18.4524 0.526793L18.462 0.594435C18.6033 0.598644 18.5343 0.541011 18.6799 0.57806L18.6787 0.544117L18.8488 0.605322C18.8301 0.487009 19.2471 0.59183 19.3615 0.535978C19.6286 0.574868 19.899 0.588806 20.1688 0.5776C20.2192 0.516921 20.5592 0.514401 20.7754 0.482087C21.1973 0.493785 21.8006 0.50933 22.3376 0.483145L22.329 0.559401L22.4693 0.563645C22.4687 0.546674 22.4859 0.538094 22.4681 0.529702C22.5762 0.442078 22.7915 0.555728 22.9039 0.500944C22.8333 0.570307 22.8013 0.512417 22.7261 0.513963C22.611 0.550848 22.7219 0.624058 22.8771 0.585814L22.8765 0.568843L22.981 0.609283C22.9923 0.549928 23.0881 0.521693 23.1004 0.462304C23.5162 0.512701 23.9345 0.541574 24.3534 0.5488C24.3036 0.482518 24.6961 0.565179 24.5992 0.449516C24.8852 0.492805 24.5531 0.543035 24.6838 0.624568C24.7631 0.621884 24.8477 0.654001 24.8616 0.611549C24.8235 0.583852 24.9261 0.541397 24.8587 0.530684L25.0496 0.53921C25.0679 0.530596 25.0261 0.51402 25.0042 0.506766C25.394 0.572525 25.6938 0.429429 26.0436 0.498544C26.0698 0.540636 25.9049 0.509241 25.9311 0.55233C26.2826 0.640379 26.2376 0.477979 26.5695 0.539701L26.5015 0.482032C26.5492 0.512222 26.6032 0.531815 26.6595 0.539409C26.7159 0.547003 26.7733 0.54241 26.8277 0.525959C26.8582 0.457955 26.6794 0.470011 26.5956 0.433866C26.715 0.429822 27.0177 0.450555 26.9261 0.51163C27.0691 0.534772 27.1216 0.474023 27.1982 0.455436C27.1988 0.472407 27.0648 0.500934 27.1484 0.532088C27.3918 0.501335 27.6372 0.48801 27.8827 0.492221C27.8821 0.47525 27.8966 0.449769 27.8808 0.441307C28.0683 0.553902 28.0474 0.401681 28.3109 0.421743Z" fill="#202020"/>
</svg>
